# WaveFront *.obj file (generated by Autodesk ATF)

mtllib Phone2_v1.mtl

g Körper1

v 0.000000 14.500000 0.500000
v 0.017037 14.629410 0.500000
v 0.066987 14.750000 0.500000
v 0.146447 14.853553 0.500000
v 0.250000 14.933013 0.500000
v 0.370590 14.982963 0.500000
v 0.500000 15.000000 0.500000
v 0.500000 15.000000 0.000000
v 0.370590 14.982963 0.000000
v 0.250000 14.933013 0.000000
v 0.146447 14.853553 0.000000
v 0.066987 14.750000 0.000000
v 0.017037 14.629410 0.000000
v 0.000000 14.500000 0.000000
v 0.000000 7.500000 0.000000
v 0.000000 0.500000 0.000000
v 0.000000 0.500000 0.500000
v 0.000000 7.500000 0.500000
v 0.500000 0.500000 0.000000
v 7.500000 0.500000 0.000000
v 7.500000 7.500000 0.000000
v 7.500000 14.500000 0.000000
v 0.500000 14.500000 0.000000
v 0.500000 7.500000 0.000000
v 7.500000 15.000000 0.000000
v 7.629410 14.982963 0.000000
v 7.750000 14.933013 0.000000
v 7.853553 14.853553 0.000000
v 7.933013 14.750000 0.000000
v 7.982963 14.629410 0.000000
v 8.000000 14.500000 0.000000
v 8.000000 7.500000 0.000000
v 8.000000 0.500000 0.000000
v 7.982963 0.370590 0.000000
v 7.933013 0.250000 0.000000
v 7.853553 0.146447 0.000000
v 7.750000 0.066987 0.000000
v 7.629410 0.017037 0.000000
v 7.500000 0.000000 0.000000
v 0.500000 0.000000 0.000000
v 0.370590 0.017037 0.000000
v 0.250000 0.066987 0.000000
v 0.146447 0.146447 0.000000
v 0.066987 0.250000 0.000000
v 0.017037 0.370590 0.000000
v 7.500000 15.000000 0.500000
v 7.629410 14.982963 0.500000
v 7.750000 14.933013 0.500000
v 7.853553 14.853553 0.500000
v 7.933013 14.750000 0.500000
v 7.982963 14.629410 0.500000
v 8.000000 14.500000 0.500000
v 8.000000 7.500000 0.500000
v 8.000000 0.500000 0.500000
v 7.982963 0.370590 0.500000
v 7.933013 0.250000 0.500000
v 7.853553 0.146447 0.500000
v 7.750000 0.066987 0.500000
v 7.629410 0.017037 0.500000
v 7.500000 0.000000 0.500000
v 0.500000 0.000000 0.500000
v 0.370590 0.017037 0.500000
v 0.250000 0.066987 0.500000
v 0.146447 0.146447 0.500000
v 0.066987 0.250000 0.500000
v 0.017037 0.370590 0.500000
v 7.500000 0.500000 0.500000
v 7.500000 7.500000 0.500000
v 7.500000 14.500000 0.500000
v 0.500000 14.500000 0.500000
v 0.500000 7.500000 0.500000
v 0.500000 0.500000 0.500000
vt -0.000000 0.392699 0.000000
vt -0.500000 0.392699 0.000000
vt -0.000000 0.261799 0.000000
vt -0.500000 0.261799 0.000000
vt -0.000000 0.130900 0.000000
vt -0.500000 0.130900 0.000000
vt -0.000000 0.000000 0.000000
vt -0.500000 0.000000 0.000000
vt -0.000000 -0.130900 0.000000
vt -0.500000 -0.130900 0.000000
vt -0.000000 -0.261799 0.000000
vt -0.500000 -0.261799 0.000000
vt -0.000000 -0.392699 0.000000
vt -0.500000 -0.392699 0.000000
vt 0.500000 0.000000 0.000000
vt 7.500000 0.000000 0.000000
vt 0.500000 0.500000 0.000000
vt 7.500000 0.500000 0.000000
vt 14.500000 0.000000 0.000000
vt 14.500000 0.500000 0.000000
vt -3.500000 -7.000000 0.000000
vt 3.500000 -7.500000 0.000000
vt 3.500000 -7.000000 0.000000
vt 3.629410 -7.482963 0.000000
vt 3.750000 -7.433013 0.000000
vt -3.500000 0.000000 0.000000
vt -4.000000 0.000000 0.000000
vt -4.000000 -7.000000 0.000000
vt -3.982963 -7.129410 0.000000
vt -4.000000 7.000000 0.000000
vt -3.500000 7.000000 0.000000
vt -3.982963 7.129410 0.000000
vt -3.933013 7.250000 0.000000
vt -3.853553 7.353553 0.000000
vt -3.750000 7.433013 0.000000
vt -3.629410 7.482963 0.000000
vt -3.500000 7.500000 0.000000
vt 3.500000 7.000000 0.000000
vt 3.500000 7.500000 0.000000
vt 3.629410 7.482963 0.000000
vt 3.750000 7.433013 0.000000
vt 3.853553 7.353553 0.000000
vt 3.933013 7.250000 0.000000
vt 3.982963 7.129410 0.000000
vt 4.000000 7.000000 0.000000
vt 4.000000 0.000000 0.000000
vt 3.500000 0.000000 0.000000
vt 4.000000 -7.000000 0.000000
vt 3.982963 -7.129410 0.000000
vt 3.933013 -7.250000 0.000000
vt 3.853553 -7.353553 0.000000
vt -3.933013 -7.250000 0.000000
vt -3.853553 -7.353553 0.000000
vt -3.750000 -7.433013 0.000000
vt -3.629410 -7.482963 0.000000
vt -3.500000 -7.500000 0.000000
vt -0.000000 0.392699 0.000000
vt -0.500000 0.392699 0.000000
vt -0.000000 0.261799 0.000000
vt -0.500000 0.261799 0.000000
vt -0.000000 0.130900 0.000000
vt -0.500000 0.130900 0.000000
vt -0.000000 -0.000000 0.000000
vt -0.500000 -0.000000 0.000000
vt -0.000000 -0.130900 0.000000
vt -0.500000 -0.130900 0.000000
vt -0.000000 -0.261799 0.000000
vt -0.500000 -0.261799 0.000000
vt -0.000000 -0.392699 0.000000
vt -0.500000 -0.392699 0.000000
vt 14.500000 0.500000 0.000000
vt 7.500000 0.500000 0.000000
vt 14.500000 0.000000 0.000000
vt 7.500000 0.000000 0.000000
vt 0.500000 0.500000 0.000000
vt 0.500000 0.000000 0.000000
vt -0.000000 0.392699 0.000000
vt -0.500000 0.392699 0.000000
vt -0.000000 0.261799 0.000000
vt -0.500000 0.261799 0.000000
vt -0.000000 0.130900 0.000000
vt -0.500000 0.130900 0.000000
vt -0.000000 0.000000 0.000000
vt -0.500000 0.000000 0.000000
vt -0.000000 -0.130900 0.000000
vt -0.500000 -0.130900 0.000000
vt -0.000000 -0.261799 0.000000
vt -0.500000 -0.261799 0.000000
vt -0.000000 -0.392699 0.000000
vt -0.500000 -0.392699 0.000000
vt -0.000000 0.392699 0.000000
vt -0.500000 0.392699 0.000000
vt -0.000000 0.261799 0.000000
vt -0.500000 0.261799 0.000000
vt -0.000000 0.130900 0.000000
vt -0.500000 0.130900 0.000000
vt -0.000000 0.000000 0.000000
vt -0.500000 0.000000 0.000000
vt -0.000000 -0.130900 0.000000
vt -0.500000 -0.130900 0.000000
vt -0.000000 -0.261799 0.000000
vt -0.500000 -0.261799 0.000000
vt -0.000000 -0.392699 0.000000
vt -0.500000 -0.392699 0.000000
vt 0.000000 0.000000 0.000000
vt 7.000000 0.000000 0.000000
vt 0.000000 0.500000 0.000000
vt 7.000000 0.500000 0.000000
vt 14.000000 0.000000 0.000000
vt 14.000000 0.500000 0.000000
vt 0.000000 0.000000 0.000000
vt 7.000000 0.000000 0.000000
vt 0.000000 0.500000 0.000000
vt 7.000000 0.500000 0.000000
vt 0.000000 0.000000 0.000000
vt 7.000000 0.000000 0.000000
vt 0.000000 0.500000 0.000000
vt 7.000000 0.500000 0.000000
vt 14.000000 0.000000 0.000000
vt 14.000000 0.500000 0.000000
vt 0.000000 0.000000 0.000000
vt 7.000000 0.000000 0.000000
vt 0.000000 0.500000 0.000000
vt 7.000000 0.500000 0.000000
vt 7.500000 0.500000 0.000000
vt 0.500000 0.500000 0.000000
vt 7.500000 0.000000 0.000000
vt 0.500000 0.000000 0.000000
vt 7.500000 0.500000 0.000000
vt 0.500000 0.500000 0.000000
vt 7.500000 0.000000 0.000000
vt 0.500000 0.000000 0.000000
vt -3.629410 7.482963 0.000000
vt -3.500000 7.000000 0.000000
vt -3.500000 7.500000 0.000000
vt 3.500000 7.000000 0.000000
vt 3.500000 7.500000 0.000000
vt 3.629410 7.482963 0.000000
vt 3.750000 7.433013 0.000000
vt 3.853553 7.353553 0.000000
vt 3.933013 7.250000 0.000000
vt 3.982963 7.129410 0.000000
vt 4.000000 7.000000 0.000000
vt 4.000000 0.000000 0.000000
vt 3.500000 0.000000 0.000000
vt 4.000000 -7.000000 0.000000
vt 3.500000 -7.000000 0.000000
vt 3.982963 -7.129410 0.000000
vt 3.933013 -7.250000 0.000000
vt 3.853553 -7.353553 0.000000
vt 3.750000 -7.433013 0.000000
vt 3.629410 -7.482963 0.000000
vt 3.500000 -7.500000 0.000000
vt -3.500000 -7.000000 0.000000
vt -3.500000 -7.500000 0.000000
vt -3.629410 -7.482963 0.000000
vt -3.750000 -7.433013 0.000000
vt -3.853553 -7.353553 0.000000
vt -3.933013 -7.250000 0.000000
vt -3.982963 -7.129410 0.000000
vt -4.000000 -7.000000 0.000000
vt -4.000000 0.000000 0.000000
vt -3.500000 0.000000 0.000000
vt -4.000000 7.000000 0.000000
vt -3.982963 7.129410 0.000000
vt -3.933013 7.250000 0.000000
vt -3.853553 7.353553 0.000000
vt -3.750000 7.433013 0.000000
vn -1.000000 -0.000000 0.000000
vn -1.000000 -0.000000 0.000000
vn -0.965926 0.258819 -0.000000
vn -0.965926 0.258819 -0.000000
vn -0.866025 0.500000 -0.000000
vn -0.866025 0.500000 -0.000000
vn -0.707107 0.707107 -0.000000
vn -0.707107 0.707107 -0.000000
vn -0.500000 0.866025 -0.000000
vn -0.500000 0.866025 -0.000000
vn -0.258819 0.965926 -0.000000
vn -0.258819 0.965926 -0.000000
vn -0.000000 1.000000 -0.000000
vn -0.000000 1.000000 -0.000000
vn -1.000000 0.000000 0.000000
vn -1.000000 0.000000 0.000000
vn -1.000000 0.000000 0.000000
vn -1.000000 0.000000 0.000000
vn -0.000000 -0.000000 -1.000000
vn -0.000000 -0.000000 -1.000000
vn -0.000000 -0.000000 -1.000000
vn -0.000000 -0.000000 -1.000000
vn -0.000000 -0.000000 -1.000000
vn -0.000000 -0.000000 -1.000000
vn -0.000000 -0.000000 -1.000000
vn -0.000000 -0.000000 -1.000000
vn -0.000000 -0.000000 -1.000000
vn -0.000000 -0.000000 -1.000000
vn -0.000000 -0.000000 -1.000000
vn -0.000000 -0.000000 -1.000000
vn -0.000000 -0.000000 -1.000000
vn -0.000000 -0.000000 -1.000000
vn -0.000000 -0.000000 -1.000000
vn -0.000000 -0.000000 -1.000000
vn -0.000000 -0.000000 -1.000000
vn -0.000000 -0.000000 -1.000000
vn -0.000000 -0.000000 -1.000000
vn -0.000000 -0.000000 -1.000000
vn -0.000000 -0.000000 -1.000000
vn -0.000000 -0.000000 -1.000000
vn -0.000000 -0.000000 -1.000000
vn -0.000000 -0.000000 -1.000000
vn -0.000000 -0.000000 -1.000000
vn -0.000000 -0.000000 -1.000000
vn -0.000000 -0.000000 -1.000000
vn -0.000000 -0.000000 -1.000000
vn -0.000000 -0.000000 -1.000000
vn -0.000000 -0.000000 -1.000000
vn -0.000000 -0.000000 -1.000000
vn -0.000000 -0.000000 -1.000000
vn -0.000000 -0.000000 -1.000000
vn -0.000000 -0.000000 -1.000000
vn -0.000000 -0.000000 -1.000000
vn -0.000000 -0.000000 -1.000000
vn 0.000000 1.000000 -0.000000
vn 0.000000 1.000000 -0.000000
vn 0.258819 0.965926 -0.000000
vn 0.258819 0.965926 -0.000000
vn 0.500000 0.866025 -0.000000
vn 0.500000 0.866025 -0.000000
vn 0.707107 0.707107 -0.000000
vn 0.707107 0.707107 -0.000000
vn 0.866025 0.500000 -0.000000
vn 0.866025 0.500000 -0.000000
vn 0.965926 0.258819 -0.000000
vn 0.965926 0.258819 -0.000000
vn 1.000000 -0.000000 -0.000000
vn 1.000000 -0.000000 -0.000000
vn 1.000000 0.000000 0.000000
vn 1.000000 0.000000 0.000000
vn 1.000000 0.000000 0.000000
vn 1.000000 0.000000 0.000000
vn 0.965926 -0.258819 -0.000000
vn 0.965926 -0.258819 -0.000000
vn 0.866025 -0.500000 -0.000000
vn 0.866025 -0.500000 -0.000000
vn 0.707107 -0.707107 -0.000000
vn 0.707107 -0.707107 -0.000000
vn 0.500000 -0.866025 -0.000000
vn 0.500000 -0.866025 -0.000000
vn 0.258819 -0.965926 -0.000000
vn 0.258819 -0.965926 -0.000000
vn -0.000000 -1.000000 -0.000000
vn -0.000000 -1.000000 -0.000000
vn -0.000000 -1.000000 -0.000000
vn -0.000000 -1.000000 -0.000000
vn -0.258819 -0.965926 0.000000
vn -0.258819 -0.965926 0.000000
vn -0.500000 -0.866025 0.000000
vn -0.500000 -0.866025 0.000000
vn -0.707107 -0.707107 0.000000
vn -0.707107 -0.707107 0.000000
vn -0.866025 -0.500000 0.000000
vn -0.866025 -0.500000 0.000000
vn -0.965926 -0.258819 0.000000
vn -0.965926 -0.258819 0.000000
vn -1.000000 0.000000 0.000000
vn -1.000000 0.000000 0.000000
vn -1.000000 0.000000 0.000000
vn -1.000000 0.000000 0.000000
vn -1.000000 0.000000 0.000000
vn -1.000000 0.000000 0.000000
vn 0.000000 -1.000000 0.000000
vn 0.000000 -1.000000 0.000000
vn 0.000000 -1.000000 0.000000
vn 0.000000 -1.000000 0.000000
vn 1.000000 0.000000 0.000000
vn 1.000000 0.000000 0.000000
vn 1.000000 0.000000 0.000000
vn 1.000000 0.000000 0.000000
vn 1.000000 0.000000 0.000000
vn 1.000000 0.000000 0.000000
vn 0.000000 1.000000 -0.000000
vn 0.000000 1.000000 -0.000000
vn 0.000000 1.000000 -0.000000
vn 0.000000 1.000000 -0.000000
vn 0.000000 0.000000 1.000000
vn 0.000000 0.000000 1.000000
vn 0.000000 0.000000 1.000000
vn 0.000000 0.000000 1.000000
vn 0.000000 0.000000 1.000000
vn 0.000000 0.000000 1.000000
vn 0.000000 0.000000 1.000000
vn 0.000000 0.000000 1.000000
vn 0.000000 0.000000 1.000000
vn 0.000000 0.000000 1.000000
vn 0.000000 0.000000 1.000000
vn 0.000000 0.000000 1.000000
vn 0.000000 0.000000 1.000000
vn 0.000000 0.000000 1.000000
vn 0.000000 0.000000 1.000000
vn 0.000000 0.000000 1.000000
vn 0.000000 0.000000 1.000000
vn 0.000000 0.000000 1.000000
vn 0.000000 0.000000 1.000000
vn 0.000000 0.000000 1.000000
vn 0.000000 0.000000 1.000000
vn 0.000000 0.000000 1.000000
vn 0.000000 0.000000 1.000000
vn 0.000000 0.000000 1.000000
vn 0.000000 0.000000 1.000000
vn 0.000000 0.000000 1.000000
vn 0.000000 0.000000 1.000000
vn 0.000000 0.000000 1.000000
vn 0.000000 0.000000 1.000000
vn 0.000000 0.000000 1.000000
vn 0.000000 0.000000 1.000000
vn 0.000000 0.000000 1.000000
vn 0.000000 0.000000 1.000000
vn 0.000000 0.000000 1.000000
vn 0.000000 0.000000 1.000000
vn 0.000000 0.000000 1.000000
usemtl Stahl_-_satiniert
f 14/1/1 1/2/2 13/3/3
f 13/3/3 1/2/2 2/4/4
f 13/3/3 2/4/4 12/5/5
f 12/5/5 2/4/4 3/6/6
f 12/5/5 3/6/6 11/7/7
f 11/7/7 3/6/6 4/8/8
f 11/7/7 4/8/8 10/9/9
f 10/9/9 4/8/8 5/10/10
f 10/9/9 5/10/10 9/11/11
f 9/11/11 5/10/10 6/12/12
f 9/11/11 6/12/12 8/13/13
f 8/13/13 6/12/12 7/14/14
f 14/15/1 15/16/15 1/17/2
f 1/17/2 15/16/15 18/18/16
f 18/18/16 15/16/15 16/19/17
f 18/18/16 16/19/17 17/20/18
f 20/21/19 40/22/20 19/23/21
f 19/23/21 40/22/20 41/24/22
f 19/23/21 41/24/22 42/25/23
f 21/26/24 32/27/25 20/21/19
f 20/21/19 32/27/25 33/28/26
f 20/21/19 33/28/26 34/29/27
f 32/27/25 21/26/24 31/30/28
f 31/30/28 21/26/24 22/31/29
f 31/30/28 22/31/29 30/32/30
f 30/32/30 22/31/29 29/33/31
f 29/33/31 22/31/29 28/34/32
f 28/34/32 22/31/29 27/35/33
f 27/35/33 22/31/29 26/36/34
f 26/36/34 22/31/29 25/37/35
f 25/37/35 22/31/29 23/38/36
f 25/37/35 23/38/36 8/39/37
f 8/39/37 23/38/36 9/40/38
f 9/40/38 23/38/36 10/41/39
f 10/41/39 23/38/36 11/42/40
f 11/42/40 23/38/36 12/43/41
f 12/43/41 23/38/36 13/44/42
f 13/44/42 23/38/36 14/45/43
f 14/45/43 23/38/36 15/46/44
f 15/46/44 23/38/36 24/47/45
f 15/46/44 24/47/45 16/48/46
f 16/48/46 24/47/45 19/23/21
f 16/48/46 19/23/21 45/49/47
f 45/49/47 19/23/21 44/50/48
f 44/50/48 19/23/21 43/51/49
f 43/51/49 19/23/21 42/25/23
f 34/29/27 35/52/50 20/21/19
f 20/21/19 35/52/50 36/53/51
f 20/21/19 36/53/51 37/54/52
f 37/54/52 38/55/53 20/21/19
f 20/21/19 38/55/53 39/56/54
f 20/21/19 39/56/54 40/22/20
f 25/57/55 46/58/56 26/59/57
f 26/59/57 46/58/56 47/60/58
f 26/59/57 47/60/58 27/61/59
f 27/61/59 47/60/58 48/62/60
f 27/61/59 48/62/60 28/63/61
f 28/63/61 48/62/60 49/64/62
f 28/63/61 49/64/62 29/65/63
f 29/65/63 49/64/62 50/66/64
f 29/65/63 50/66/64 30/67/65
f 30/67/65 50/66/64 51/68/66
f 30/67/65 51/68/66 31/69/67
f 31/69/67 51/68/66 52/70/68
f 52/71/68 53/72/69 31/73/67
f 31/73/67 53/72/69 32/74/70
f 32/74/70 53/72/69 54/75/71
f 32/74/70 54/75/71 33/76/72
f 33/77/72 54/78/71 34/79/73
f 34/79/73 54/78/71 55/80/74
f 34/79/73 55/80/74 35/81/75
f 35/81/75 55/80/74 56/82/76
f 35/81/75 56/82/76 36/83/77
f 36/83/77 56/82/76 57/84/78
f 36/83/77 57/84/78 37/85/79
f 37/85/79 57/84/78 58/86/80
f 37/85/79 58/86/80 38/87/81
f 38/87/81 58/86/80 59/88/82
f 38/87/81 59/88/82 39/89/83
f 39/89/83 59/88/82 60/90/84
f 40/91/85 61/92/86 41/93/87
f 41/93/87 61/92/86 62/94/88
f 41/93/87 62/94/88 42/95/89
f 42/95/89 62/94/88 63/96/90
f 42/95/89 63/96/90 43/97/91
f 43/97/91 63/96/90 64/98/92
f 43/97/91 64/98/92 44/99/93
f 44/99/93 64/98/92 65/100/94
f 44/99/93 65/100/94 45/101/95
f 45/101/95 65/100/94 66/102/96
f 45/101/95 66/102/96 16/103/17
f 16/103/17 66/102/96 17/104/18
f 22/105/97 21/106/98 69/107/99
f 69/107/99 21/106/98 68/108/100
f 68/108/100 21/106/98 20/109/101
f 68/108/100 20/109/101 67/110/102
f 23/111/103 22/112/104 70/113/105
f 70/113/105 22/112/104 69/114/106
f 19/115/107 24/116/108 72/117/109
f 72/117/109 24/116/108 71/118/110
f 71/118/110 24/116/108 23/119/111
f 71/118/110 23/119/111 70/120/112
f 20/121/113 19/122/114 67/123/115
f 67/123/115 19/122/114 72/124/116
f 7/125/14 46/126/56 8/127/13
f 8/127/13 46/126/56 25/128/55
f 60/129/84 61/130/86 39/131/83
f 39/131/83 61/130/86 40/132/85
f 6/133/117 70/134/118 7/135/119
f 7/135/119 70/134/118 69/136/120
f 7/135/119 69/136/120 46/137/121
f 46/137/121 69/136/120 47/138/122
f 47/138/122 69/136/120 48/139/123
f 48/139/123 69/136/120 49/140/124
f 49/140/124 69/136/120 50/141/125
f 50/141/125 69/136/120 51/142/126
f 51/142/126 69/136/120 52/143/127
f 52/143/127 69/136/120 53/144/128
f 53/144/128 69/136/120 68/145/129
f 53/144/128 68/145/129 54/146/130
f 54/146/130 68/145/129 67/147/131
f 54/146/130 67/147/131 55/148/132
f 55/148/132 67/147/131 56/149/133
f 56/149/133 67/147/131 57/150/134
f 57/150/134 67/147/131 58/151/135
f 58/151/135 67/147/131 59/152/136
f 59/152/136 67/147/131 60/153/137
f 60/153/137 67/147/131 72/154/138
f 60/153/137 72/154/138 61/155/139
f 61/155/139 72/154/138 62/156/140
f 62/156/140 72/154/138 63/157/141
f 63/157/141 72/154/138 64/158/142
f 64/158/142 72/154/138 65/159/143
f 65/159/143 72/154/138 66/160/144
f 66/160/144 72/154/138 17/161/145
f 17/161/145 72/154/138 18/162/146
f 18/162/146 72/154/138 71/163/147
f 18/162/146 71/163/147 1/164/148
f 1/164/148 71/163/147 70/134/118
f 1/164/148 70/134/118 2/165/149
f 2/165/149 70/134/118 3/166/150
f 3/166/150 70/134/118 4/167/151
f 4/167/151 70/134/118 5/168/152
f 5/168/152 70/134/118 6/133/117
# 72 vertices
# 168 texture params
# 152 normals
# 144 facets

# 1 groups
